{
  "accessors": [
    {
      "bufferView": 2,
      "componentType": 5126,
      "count": 65533,
      "max": [
        545.1334838867188,
        638.4716186523438,
        1051.739013671875
      ],
      "min": [
        -545.1334838867188,
        0.0,
        -1051.739013671875
      ],
      "type": "VEC3"
    },
    {
      "bufferView": 2,
      "byteOffset": 786396,
      "componentType": 5126,
      "count": 65533,
      "max": [
        1.0,
        1.0,
        1.0
      ],
      "min": [
        -1.0,
        -1.0,
        -1.0
      ],
      "type": "VEC3"
    },
    {
      "bufferView": 1,
      "componentType": 5126,
      "count": 65533,
      "max": [
        11.031667709350586,
        11.047443389892578
      ],
      "min": [
        -0.4301382899284363,
        -2.0934414863586426
      ],
      "type": "VEC2"
    },
    {
      "bufferView": 0,
      "componentType": 5125,
      "count": 100761,
      "type": "SCALAR"
    },
    {
      "bufferView": 2,
      "byteOffset": 1572792,
      "componentType": 5126,
      "count": 17711,
      "max": [
        -148.58511352539063,
        574.206787109375,
        1015.4244384765625
      ],
      "min": [
        -454.1299743652344,
        441.1770935058594,
        -1016.0279541015625
      ],
      "type": "VEC3"
    },
    {
      "bufferView": 2,
      "byteOffset": 1785324,
      "componentType": 5126,
      "count": 17711,
      "max": [
        0.932468831539154,
        0.9324820637702942,
        0.999992311000824
      ],
      "min": [
        -0.932468831539154,
        -0.39306411147117615,
        -0.999992311000824
      ],
      "type": "VEC3"
    },
    {
      "bufferView": 1,
      "byteOffset": 524264,
      "componentType": 5126,
      "count": 17711,
      "max": [
        11.021415710449219,
        11.047443389892578
      ],
      "min": [
        3.926952362060547,
        3.9014782905578613
      ],
      "type": "VEC2"
    },
    {
      "bufferView": 0,
      "byteOffset": 403044,
      "componentType": 5125,
      "count": 26565,
      "type": "SCALAR"
    }
  ],
  "asset": {
    "extras": {
      "author": "Mehdi Shahsavan (https://sketchfab.com/ahmagh2e)",
      "license": "CC-BY-4.0 (http://creativecommons.org/licenses/by/4.0/)",
      "source": "https://sketchfab.com/3d-models/house-farm-wood-13-mb-a9732b6c1c4249a08477de9fc53ee6ad",
      "title": "House Farm wood - 13 MB"
    },
    "generator": "Sketchfab-16.14.0",
    "version": "2.0"
  },
  "bufferViews": [
    {
      "buffer": 0,
      "byteLength": 509304,
      "name": "floatBufferViews",
      "target": 34963
    },
    {
      "buffer": 0,
      "byteLength": 665952,
      "byteOffset": 509304,
      "byteStride": 8,
      "name": "floatBufferViews",
      "target": 34962
    },
    {
      "buffer": 0,
      "byteLength": 1997856,
      "byteOffset": 1175256,
      "byteStride": 12,
      "name": "floatBufferViews",
      "target": 34962
    }
  ],
  "buffers": [
    {
      "byteLength": 3173112,
      "uri": "scene.bin"
    }
  ],
  "images": [
    {
      "uri": "textures/House_Farm_wood_baseColor.jpeg"
    },
    {
      "uri": "textures/House_Farm_wood_metallicRoughness.png"
    }
  ],
  "materials": [
    {
      "doubleSided": true,
      "name": "House_Farm_wood",
      "pbrMetallicRoughness": {
        "baseColorTexture": {
          "index": 0
        },
        "metallicFactor": 0.31512687396390426,
        "metallicRoughnessTexture": {
          "index": 1
        }
      }
    }
  ],
  "meshes": [
    {
      "name": "House_Farm_wood_House Farm wood_0",
      "primitives": [
        {
          "attributes": {
            "NORMAL": 1,
            "POSITION": 0,
            "TEXCOORD_0": 2
          },
          "indices": 3,
          "material": 0,
          "mode": 4
        }
      ]
    },
    {
      "name": "House_Farm_wood_House Farm wood_0",
      "primitives": [
        {
          "attributes": {
            "NORMAL": 5,
            "POSITION": 4,
            "TEXCOORD_0": 6
          },
          "indices": 7,
          "material": 0,
          "mode": 4
        }
      ]
    }
  ],
  "nodes": [
    {
      "children": [
        1
      ],
      "matrix": [
        1.0,
        0.0,
        0.0,
        0.0,
        0.0,
        2.220446049250313e-16,
        -1.0,
        0.0,
        0.0,
        1.0,
        2.220446049250313e-16,
        0.0,
        0.0,
        0.0,
        0.0,
        1.0
      ],
      "name": "Sketchfab_model"
    },
    {
      "children": [
        2
      ],
      "matrix": [
        0.009999999776482582,
        0.0,
        0.0,
        0.0,
        0.0,
        0.0,
        0.009999999776482582,
        0.0,
        0.0,
        -0.009999999776482582,
        0.0,
        0.0,
        0.0,
        0.0,
        0.0,
        1.0
      ],
      "name": "e111588da3b444ea9894524bfd26e4ce.fbx"
    },
    {
      "children": [
        3,
        5
      ],
      "name": "RootNode"
    },
    {
      "children": [
        4
      ],
      "matrix": [
        0.7486236685144037,
        -0.3243447338434344,
        0.5782413826146207,
        0.0,
        0.2566890231002242,
        0.9459389481504775,
        0.19826813105444063,
        0.0,
        -0.6112882694440398,
        2.7755575615628914e-17,
        0.7914080184330401,
        0.0,
        -2276.373779296875,
        1054.63037109375,
        -1770.7867431640625,
        1.0
      ],
      "name": "CINEMA_4D_Editor"
    },
    {
      "name": "Object_4"
    },
    {
      "children": [
        6,
        7
      ],
      "matrix": [
        1.0,
        0.0,
        0.0,
        0.0,
        0.0,
        1.0,
        0.0,
        0.0,
        0.0,
        0.0,
        1.0,
        0.0,
        1.4210854715202004e-14,
        -9.503232955932617,
        -0.7294458150863647,
        1.0
      ],
      "name": "House_Farm_wood"
    },
    {
      "mesh": 0,
      "name": "House_Farm_wood_House Farm wood_0"
    },
    {
      "mesh": 1,
      "name": "House_Farm_wood_House Farm wood_0"
    }
  ],
  "samplers": [
    {
      "magFilter": 9729,
      "minFilter": 9987,
      "wrapS": 10497,
      "wrapT": 10497
    }
  ],
  "scene": 0,
  "scenes": [
    {
      "name": "Sketchfab_Scene",
      "nodes": [
        0
      ]
    }
  ],
  "textures": [
    {
      "sampler": 0,
      "source": 0
    },
    {
      "sampler": 0,
      "source": 1
    }
  ]
}
